<mxfile host="Electron" agent="Mozilla/5.0 (Windows NT 10.0; Win64; x64) AppleWebKit/537.36 (KHTML, like Gecko) draw.io/27.0.2 Chrome/134.0.6998.205 Electron/35.3.0 Safari/537.36" version="27.0.2">
  <diagram id="C4_Level_2_Grouped" name="C4 Level 2 - Containers Grouped">
    <mxGraphModel dx="2066" dy="1201" grid="1" gridSize="10" guides="1" tooltips="1" connect="1" arrows="1" fold="1" page="1" pageScale="1" pageWidth="850" pageHeight="1100" math="0" shadow="0">
      <root>
        <mxCell id="0" />
        <mxCell id="1" parent="0" />
        <mxCell id="500" value="" style="rounded=1;dashed=1;fontStyle=1;container=0;fillColor=#f5f5f5;fontColor=#333333;strokeColor=#666666;gradientColor=none;shadow=0;" parent="1" vertex="1">
          <mxGeometry x="60" y="170" width="1031" height="530" as="geometry" />
        </mxCell>
        <mxCell id="100" value="OpenAI API" style="ellipse;fillColor=#f8cecc;strokeColor=#b85450;shadow=0;" parent="1" vertex="1">
          <mxGeometry x="540" y="30" width="200" height="60" as="geometry" />
        </mxCell>
        <mxCell id="101" value="Job Boards (LinkedIn, Dice...)" style="ellipse;fillColor=#e1d5e7;strokeColor=#9673a6;" parent="1" vertex="1">
          <mxGeometry x="1230" y="270" width="200" height="60" as="geometry" />
        </mxCell>
        <mxCell id="102" value="Email Providers (Gmail, Apple...)" style="ellipse;fillColor=#e1d5e7;strokeColor=#9673a6;" parent="1" vertex="1">
          <mxGeometry x="1230" y="590" width="200" height="60" as="geometry" />
        </mxCell>
        <mxCell id="201" style="endArrow=block;" parent="1" source="700" target="101" edge="1">
          <mxGeometry relative="1" as="geometry" />
        </mxCell>
        <mxCell id="YD_S1Z9GlS6qAzgIC2F0-704" value="Low-Level RPA" style="edgeLabel;html=1;align=center;verticalAlign=middle;resizable=0;points=[];" vertex="1" connectable="0" parent="201">
          <mxGeometry x="0.2142" relative="1" as="geometry">
            <mxPoint as="offset" />
          </mxGeometry>
        </mxCell>
        <mxCell id="202" style="endArrow=block;" parent="1" source="700" target="102" edge="1">
          <mxGeometry relative="1" as="geometry" />
        </mxCell>
        <mxCell id="YD_S1Z9GlS6qAzgIC2F0-705" value="JSON / HTTPs (Rest Api)" style="edgeLabel;html=1;align=center;verticalAlign=middle;resizable=0;points=[];" vertex="1" connectable="0" parent="202">
          <mxGeometry x="0.1602" relative="1" as="geometry">
            <mxPoint as="offset" />
          </mxGeometry>
        </mxCell>
        <mxCell id="203" style="endArrow=block;entryX=0;entryY=1;entryDx=0;entryDy=0;" parent="1" source="600" target="100" edge="1">
          <mxGeometry relative="1" as="geometry" />
        </mxCell>
        <mxCell id="YD_S1Z9GlS6qAzgIC2F0-702" value="JSON / HTTPs" style="edgeLabel;html=1;align=center;verticalAlign=middle;resizable=0;points=[];" vertex="1" connectable="0" parent="203">
          <mxGeometry x="0.0969" y="1" relative="1" as="geometry">
            <mxPoint x="-2" y="-22" as="offset" />
          </mxGeometry>
        </mxCell>
        <mxCell id="204" style="endArrow=block;entryX=1;entryY=1;entryDx=0;entryDy=0;" parent="1" source="700" target="100" edge="1">
          <mxGeometry relative="1" as="geometry" />
        </mxCell>
        <mxCell id="YD_S1Z9GlS6qAzgIC2F0-703" value="JSON / HTTPs" style="edgeLabel;html=1;align=center;verticalAlign=middle;resizable=0;points=[];" vertex="1" connectable="0" parent="204">
          <mxGeometry x="0.4003" y="1" relative="1" as="geometry">
            <mxPoint x="9" y="-2" as="offset" />
          </mxGeometry>
        </mxCell>
        <mxCell id="205" style="endArrow=block;" parent="1" source="9" target="600" edge="1">
          <mxGeometry relative="1" as="geometry" />
        </mxCell>
        <mxCell id="600" value="APIsÂ (.net 8)" style="rounded=1;dashed=1;container=0;labelPosition=center;verticalLabelPosition=top;align=center;verticalAlign=bottom;" parent="1" vertex="1">
          <mxGeometry x="350" y="227" width="280" height="330" as="geometry" />
        </mxCell>
        <mxCell id="700" value="Workers (.net 8)" style="rounded=1;dashed=1;container=0;labelPosition=center;verticalLabelPosition=top;align=center;verticalAlign=bottom;" parent="1" vertex="1">
          <mxGeometry x="750" y="227" width="280" height="430" as="geometry" />
        </mxCell>
        <mxCell id="9" value="Web UI (Angular 18)" style="rounded=1;fillColor=#d5e8d4;strokeColor=#82b366;" parent="1" vertex="1">
          <mxGeometry x="80" y="360" width="220" height="60" as="geometry" />
        </mxCell>
        <mxCell id="200" style="endArrow=block;exitX=0.5;exitY=1;exitDx=0;exitDy=0;entryX=0.146;entryY=0.111;entryDx=0;entryDy=0;entryPerimeter=0;" parent="1" source="600" target="YD_S1Z9GlS6qAzgIC2F0-708" edge="1">
          <mxGeometry relative="1" as="geometry">
            <mxPoint x="600" y="910" as="sourcePoint" />
          </mxGeometry>
        </mxCell>
        <mxCell id="YD_S1Z9GlS6qAzgIC2F0-706" value="TCP + TLS" style="edgeLabel;html=1;align=center;verticalAlign=middle;resizable=0;points=[];" vertex="1" connectable="0" parent="200">
          <mxGeometry x="0.5255" y="1" relative="1" as="geometry">
            <mxPoint y="1" as="offset" />
          </mxGeometry>
        </mxCell>
        <mxCell id="YD_S1Z9GlS6qAzgIC2F0-701" style="endArrow=block;exitX=0.5;exitY=1;exitDx=0;exitDy=0;entryX=0.826;entryY=0.051;entryDx=0;entryDy=0;entryPerimeter=0;" edge="1" parent="1" source="700" target="YD_S1Z9GlS6qAzgIC2F0-708">
          <mxGeometry relative="1" as="geometry">
            <mxPoint x="500" y="600" as="sourcePoint" />
            <mxPoint x="643" y="950" as="targetPoint" />
          </mxGeometry>
        </mxCell>
        <mxCell id="YD_S1Z9GlS6qAzgIC2F0-707" value="TCP + TLS" style="edgeLabel;html=1;align=center;verticalAlign=middle;resizable=0;points=[];" vertex="1" connectable="0" parent="YD_S1Z9GlS6qAzgIC2F0-701">
          <mxGeometry x="0.1339" relative="1" as="geometry">
            <mxPoint as="offset" />
          </mxGeometry>
        </mxCell>
        <mxCell id="2" value="User Service API (.NET)" style="rounded=1;fillColor=#fff2cc;strokeColor=#d6b656;" parent="1" vertex="1">
          <mxGeometry x="380" y="257" width="220" height="60" as="geometry" />
        </mxCell>
        <mxCell id="3" value="Inbox Service API (.NET)" style="rounded=1;fillColor=#fff2cc;strokeColor=#d6b656;" parent="1" vertex="1">
          <mxGeometry x="380" y="357" width="220" height="60" as="geometry" />
        </mxCell>
        <mxCell id="4" value="Resume Service API (.NET)" style="rounded=1;fillColor=#fff2cc;strokeColor=#d6b656;" parent="1" vertex="1">
          <mxGeometry x="380" y="457" width="220" height="60" as="geometry" />
        </mxCell>
        <mxCell id="5" value="LinkedIn Workers" style="rounded=1;fillColor=#dae8fc;strokeColor=#6c8ebf;" parent="1" vertex="1">
          <mxGeometry x="780" y="257" width="220" height="60" as="geometry" />
        </mxCell>
        <mxCell id="6" value="Dice Worker" style="rounded=1;fillColor=#dae8fc;strokeColor=#6c8ebf;" parent="1" vertex="1">
          <mxGeometry x="780" y="357" width="220" height="60" as="geometry" />
        </mxCell>
        <mxCell id="7" value="Google Worker" style="rounded=1;fillColor=#dae8fc;strokeColor=#6c8ebf;" parent="1" vertex="1">
          <mxGeometry x="780" y="457" width="220" height="60" as="geometry" />
        </mxCell>
        <mxCell id="8" value="Outbox Worker" style="rounded=1;fillColor=#dae8fc;strokeColor=#6c8ebf;" parent="1" vertex="1">
          <mxGeometry x="780" y="557" width="220" height="60" as="geometry" />
        </mxCell>
        <mxCell id="YD_S1Z9GlS6qAzgIC2F0-708" value="&lt;span style=&quot;text-wrap-mode: nowrap;&quot;&gt;MongoDB (Cloud)&lt;/span&gt;" style="shape=cylinder3;whiteSpace=wrap;html=1;boundedLbl=1;backgroundOutline=1;size=15;fillColor=#f5f5f5;fontColor=#333333;strokeColor=#666666;" vertex="1" parent="1">
          <mxGeometry x="550" y="780" width="220" height="80" as="geometry" />
        </mxCell>
      </root>
    </mxGraphModel>
  </diagram>
</mxfile>
